<?xml version="1.0" encoding="UTF-8" standalone="no"?>
<svg
   width="308.7612359841165"
   height="304.915625"
   viewBox="0 0 106.00782394174519 104.68749999999999"
   class="css-1j8o68f"
   version="1.1"
   id="svg23"
   sodipodi:docname="logo.svg"
   xmlns:inkscape="http://www.inkscape.org/namespaces/inkscape"
   xmlns:sodipodi="http://sodipodi.sourceforge.net/DTD/sodipodi-0.dtd"
   xmlns="http://www.w3.org/2000/svg"
   xmlns:svg="http://www.w3.org/2000/svg">
  <sodipodi:namedview
     id="namedview25"
     pagecolor="#ffffff"
     bordercolor="#000000"
     borderopacity="0.25"
     inkscape:showpageshadow="2"
     inkscape:pageopacity="0.0"
     inkscape:pagecheckerboard="0"
     inkscape:deskcolor="#d1d1d1" />

  <g
     id="SvgjsG2686"
     featurekey="nameFeature-0"
     transform="matrix(2.284354285447385,0,0,2.284354285447385,27.980055421585643,-5.609520280720151)"
     fill="#ffffff">
        <!-- <circle cx="10" cy="27" r="20" fill="#1f8aff" stroke="white" stroke-width="2"/> -->
        <circle cx="10" cy="27" r="20" fill="#111111" stroke="white" stroke-width="2"/>
        <path fill="#FFF" d="M16.288 33.912c1.296 0 2.24 0.72 2.24 2.048 0 1.184 -1.12 2.048 -2.24 2.048H4.096c-1.648 0 -2.608 -0.928 -2.608 -2.24q0 -0.944 0.624 -1.792l9.984 -13.952h-8.16c-1.232 0 -2.176 -0.72 -2.176 -1.984 0 -1.184 0.992 -2.112 2.176 -2.112h11.344c1.792 0 2.608 1.152 2.608 2.24a3.2 3.2 0 0 1 -0.688 1.984l-9.92 13.76z"/>
  </g>
</svg>
